<svg width="512" height="512" viewBox="0 0 512 512" fill="none" xmlns="http://www.w3.org/2000/svg">
<defs>
    <filter id="shadow" x="-10%" y="-10%" width="120%" height="120%">
        <feDropShadow dx="0" dy="4" stdDeviation="8" flood-opacity="0.5" flood-color="#000"/>
    </filter>
</defs>
<g clip-path="url(#clip0_3478_202)" filter="url(#shadow)">
<path d="M464 127.168H272L143 111.126L63.5 111.125C36.99 111.125 0 84.5468 0 111.126V399.876C0 426.455 21.49 448.001 48 448.001H464C490.51 448.001 512 426.455 512 399.876V175.293C512 148.713 490.51 127.168 464 127.168Z" fill="#DD8E81"/>
<path d="M239.936 89.9258L275 128H0.499837C0.499837 112.988 -0.999937 136.651 -0.999937 120.421L-1 111.037C-1 125.515 0.193667 93.6848 0.451231 62.9989C0.502221 56.9239 5.4247 52 11.4998 52H168.568C190.886 52 212.239 61.0965 227.701 77.1903L239.936 89.9258Z" fill="#B76659"/>
<g clip-path="url(#clip1_3478_202)">
<path d="M169.418 395L170.072 392.592L180.962 352.271C180.962 352.271 227.139 326.633 227.909 294.781C228.678 262.928 163.261 259.821 154.025 259.821H129.805L130.167 229.522L104 200H312.567V223.307H408C408 223.307 408 244.283 336.425 262.151C336.425 262.151 299.484 271.474 298.714 295.558C293.327 319.641 346.43 353.825 346.43 353.825L359.514 395H221.752C221.752 395 240.992 370.139 291.787 353.048C291.787 353.048 223.291 344.502 169.418 395Z" fill="#B76659"/>
</g>
</g>
<defs>
<clipPath id="clip0_3478_202">
<rect width="512" height="512" fill="white"/>
</clipPath>
<clipPath id="clip1_3478_202">
<rect width="304" height="195" fill="white" transform="translate(104 200)"/>
</clipPath>
</defs>
</svg>
