<svg width="512" height="512" viewBox="0 0 512 512" fill="none" xmlns="http://www.w3.org/2000/svg">
<defs>
    <filter id="shadow" x="-10%" y="-10%" width="120%" height="120%">
        <feDropShadow dx="0" dy="4" stdDeviation="8" flood-opacity="0.5" flood-color="#000"/>
    </filter>
</defs>
<g clip-path="url(#clip0_3478_183)" filter="url(#shadow)">
<path d="M464 127.168H272L143 111.126L63.5 111.125C36.99 111.125 0 84.5468 0 111.126V399.876C0 426.455 21.49 448.001 48 448.001H464C490.51 448.001 512 426.455 512 399.876V175.293C512 148.713 490.51 127.168 464 127.168Z" fill="#DD8E81"/>
<path d="M239.936 89.9258L275 128H0.499837C0.499837 112.988 -0.999937 136.651 -0.999937 120.421L-1 111.037C-1 125.515 0.193667 93.6848 0.451231 62.9989C0.502221 56.9239 5.4247 52 11.4998 52H168.568C190.886 52 212.239 61.0965 227.701 77.1903L239.936 89.9258Z" fill="#B76659"/>
<path d="M118 225L134.204 402.58L206.911 426L280.082 402.58L296.286 225H118ZM261.093 282.384H175.757L177.661 304.548H259.189L252.875 371.129L207.421 383.243V383.377H206.911L161.086 371.129L158.3 337.12H180.446L182.071 354.214L206.911 360.72L231.843 354.214L234.629 326.308H157.139L151.196 260.983H263.136L261.093 282.384Z" fill="#B76659"/>
<path d="M303.714 225L319.917 402.58L392.857 426L465.796 402.58L482 225H303.714ZM449.082 260.893L446.853 282.115L393.321 304.233L393.182 304.278H444.95L439.007 370.052L393.414 382.929L347.542 369.828L344.571 336.672H367.275L368.76 353.855L393.182 359.823L418.578 352.913L420.296 325.276L343.085 325.051V325.006L342.992 325.051L341.321 304.278L393.367 283.326L396.385 282.115H339.325L336.632 260.893H449.082Z" fill="#B76659"/>
</g>
<defs>
<clipPath id="clip0_3478_183">
<rect width="512" height="512" fill="white"/>
</clipPath>
</defs>
</svg>
