<svg width="512" height="512" viewBox="0 0 512 512" fill="none" xmlns="http://www.w3.org/2000/svg">
<defs>
    <filter id="shadow" x="-10%" y="-10%" width="120%" height="120%">
        <feDropShadow dx="0" dy="4" stdDeviation="8" flood-opacity="0.5" flood-color="#000"/>
    </filter>
</defs>
<g clip-path="url(#clip0_3478_190)" filter="url(#shadow)">
<path d="M464 126.855H272L143 110.813L63.5 110.812C36.99 110.812 0 84.2343 0 110.813V399.563C0 426.142 21.49 447.688 48 447.688H464C490.51 447.688 512 426.142 512 399.563V174.98C512 148.401 490.51 126.855 464 126.855Z" fill="#DD8E81"/>
<path d="M239.936 89.9258L275 128H0.499837C0.499837 112.988 -0.999937 136.651 -0.999937 120.421L-1 111.037C-1 125.515 0.193667 93.6848 0.451231 62.9989C0.502221 56.9239 5.4247 52 11.4998 52H168.568C190.886 52 212.239 61.0965 227.701 77.1903L239.936 89.9258Z" fill="#B76659"/>
<path d="M182 236V284C182 284 214 316 246 316C278 316 310 284 310 284V236L246 268L182 236Z" fill="#B76659"/>
<path d="M246 172L118 220L246 268L374 220L246 172Z" fill="#C46E60"/>
<path d="M363 221V249.5L366 259V221H363Z" fill="#B76659"/>
<path d="M353 250V298L369 314V250H353Z" fill="#C36E60"/>
<path d="M366.09 220.488L272.993 208.374L241.574 207.31L365.703 223.463L366.09 220.488Z" fill="#B76659"/>
<path d="M245.5 293.199C195.75 293.199 182 280.476 182 280.476C182 280.476 195.75 321 245.5 321C295.25 321 310 280.476 310 280.476C310 280.476 295.25 293.199 245.5 293.199Z" fill="#B76659"/>
<ellipse cx="245.5" cy="207.5" rx="4.5" ry="2.5" fill="#B76659"/>
<path d="M219 362.09L316 348.5L404.88 314L418.906 368.215L324.5 380L233.026 416.305L219 362.09Z" fill="#C36E60"/>
<line x1="316.483" y1="348.872" x2="325.483" y2="382.872" stroke="#B76659"/>
</g>
<defs>
<clipPath id="clip0_3478_190">
<rect width="512" height="512" fill="white"/>
</clipPath>
</defs>
</svg>
