<svg version="1.2" xmlns="http://www.w3.org/2000/svg" viewBox="0 0 500 500" width="500" height="500">
	<title>Proyecto nuevo</title>
	<style>
		.s0 { fill: #ffffff } 
	</style>
	<path class="s0" d="m275.5 82.6l-3.8 1.2q24.9 98.6 38 141.1 3.2 10.4 13.5 18.9 10.2 8.6 11.8 15.9 1.5 7.1-1.9 13.2-3.1 6-10.5 7.6-7 1.5-14-6-6.7-8-9.9-18-30.6-105.2-54-157.9-26 21-46.1 63.3 33.9 34.6 40 62.8 5.9 27.9-8.6 52.5-14.6 24.3-30.9 27.8-16.4 3.5-27.6-5.2-11-8.7-14.3-24.1-3.3-15.7 1.8-41.6 5.5-26.3 16.9-56-19.5-18.9-42.4-31.8-22.9-12.9-42.5-15.4 0.2 1 1.2 18.6 3.9 72.6 24.3 188 9.5 52 10.3 60.5 1.1 8.5-2.4 13.9-3.5 5.8-9.5 7.1-5.8 1.2-12-2.5-5.8-3.4-8-14-2.2-10.3-4.6-63.4-4.9-110.4-24.3-207.2-13.8 0-16.7-13.5-1.3-6.1 3.7-11.2 4.9-5.4 13.2-7.2 24.7-5.3 57.8 9.8 33.3 14.6 63.2 41.4 17.4-37.6 39-63.7 21.5-26.4 43.7-31.2 15-3.2 17.6 9 1.3 5.8-3 11-3.9 5.2-9 6.3zm-59.9 158.8q-5.2-24.4-28.8-51.5-17 47.2-12.5 68.4 2.5 11.6 10.1 19 8 7.3 16.9 5.4 9-1.9 13-14.5 4.3-13 1.3-26.8z"/>
	<path fill-rule="evenodd" class="s0" d="m293 315c-26 0-47-17.2-47-38.5 0-21.3 21-38.5 47-38.5 26 0 47 17.2 47 38.5 0 21.3-21 38.5-47 38.5z"/>
	<path fill-rule="evenodd" class="s0" d="m73 443c-29.3 0-53-17.7-53-39.5 0-21.8 23.7-39.5 53-39.5 29.3 0 53 17.7 53 39.5 0 21.8-23.7 39.5-53 39.5z"/>
	<path class="s0" d="m181.4 417.3q-10.9 0-18.9-4.2-8.1-4.4-12.6-12.1-4.3-7.7-4.3-17.6 0-10.2 4.3-17.7 4.5-7.7 12.4-11.9 8-4.4 18.5-4.4 10.1 0 17.5 4.1 7.4 4.1 11.5 11.4 4.1 7.3 4.1 17.2 0 2-0.1 3.8-0.1 1.7-0.4 3.2h-56.6v-12.7h41.1l-3.3 2.4q0-8-3.9-11.7-3.7-3.8-10.2-3.8-7.5 0-11.8 5.1-4.1 5.1-4.1 15.3 0 10 4.1 14.9 4.3 4.9 12.6 4.9 4.6 0 7.9-1.6 3.3-1.5 5-5h18q-3.2 9.5-11 15-7.6 5.4-19.8 5.4zm42.8-1.3v-92.2h19.2v92.2zm65.5 1.3q-10.8 0-19-4.2-8.1-4.4-12.7-12.1-4.4-7.8-4.4-17.9 0-10.1 4.4-17.7 4.6-7.5 12.7-11.7 8.2-4.3 19-4.3 10.8 0 18.9 4.3 8.2 4.2 12.7 11.7 4.5 7.6 4.5 17.7 0 10.1-4.7 17.9-4.4 7.7-12.6 12.1-8.1 4.2-18.8 4.2zm0-15.1q4.4 0 8-2.3 3.7-2.3 5.9-6.6 2.2-4.3 2.2-10.3 0-8.9-4.8-13.6-4.6-4.9-11.3-4.9-6.8 0-11.6 4.9-4.6 4.9-4.6 13.6 0 6 2.2 10.3 2.2 4.3 5.8 6.6 3.7 2.3 8.2 2.3zm93.7 13.8v-14.5l1.3 0.3q-1.3 7-7.7 11.3-6.3 4.2-15.1 4.2-9 0-15.6-4.1-6.6-4.2-10.1-11.8-3.6-7.5-3.6-17.8 0-10.4 3.7-18 3.7-7.7 10.4-11.9 6.7-4.3 15.7-4.3 9.3 0 15.1 4.4 5.9 4.3 6.9 11.9l-1.4 0.1v-42h19.2v92.2zm-15.4-14.1q6.8 0 11.1-4.7 4.2-4.9 4.2-13.8 0-9-4.4-13.7-4.2-4.9-11.1-4.9-6.7 0-11 4.9-4.2 4.8-4.2 13.8 0 8.9 4.2 13.7 4.3 4.7 11.2 4.7zm52.9 40.3l18-39.9 3.4-5.5 16.9-46.1h20.5l-39.6 91.5zm13.8-27.5l-25.1-64h20.8l20.6 58.4z"/>
	<path class="s0" d="m186.8 427.7q-0.3 0.1-0.7 0.1c0.7 0.1 1.6 0.1 2.3 0.1 0.1 0-0.2 0.2 0.1 0.2 0.2 0 0.2-0.2 0.6-0.2 0.4 0 2.3 0.2 2.9 0.2 2.5 0 5-0.1 7.5 0.1-2.6 0.1 0 0.3 0.7 0.2 0.2 0 0.1-0.4 2.7-0.2 1.6 0.1 0.1 0.6 2.8 0.4-2-0.5 0-0.4 1.6-0.4 0.3 0 2.6 0.1 3.6 0.1 0.4 0 0.9-0.2 1.3-0.2 0.4 0 0.6 0.2 1.1 0.2 2.1 0 4.3 0 6.5 0.1-1.3 0.5 1 0.2 1.1 0.2 0.5 0.2-1.9 0.2-0.9 0.3q1.9 0 3.8 0c-1-0.1 1.5-0.4 1.9-0.3-0.1-0.1 0.7-0.1 1.8 0 1.8 0.1 4.5 0.5 5.1 0.4 0.2 0-1.1-0.3 1.8-0.1 0.4 0 0.2 0.1 0.4 0.1 0.1 0 0.7-0.4 1.4-0.2 0.2 0.1-1.3 0.4 2 0.3-1.3-0.5 4.6-0.2 5.7-0.1q-0.3-0.1-0.7-0.2c1.1 0.2 1.3 0.1 1.5 0.1 1 0 2.4 0.2 3.3 0.2 1 0 1-0.3 2.3-0.2q-0.5-0.1-0.9-0.2 1.3 0.1 2.6 0.1c-2 0.3 0.4 0 0.6 0 0.2 0-0.1 0.1 0.3 0.1 0 0 0-0.1 0.6-0.1 1.4 0 1.2 0.1 1.7 0.1 0.1 0-0.1-0.1 0.9-0.1 3.1-0.1 0 0.1-0.1 0.1-0.2 0 0.9 0.6-1.8 0.4 0.9 0 1 0.3 1.1 0.3 0.1 0 1.6 0 1.7-0.1 0.8 0 0.1-0.2 0.3-0.2 0.1 0 2 0.2 2.4-0.3 0.9 0.5-0.5 0.4-2 0.5-0.2 0.1 1.4 0.2 1.5 0.2 2.1 0 1-0.4 1.4-0.6 0.3-0.2 1.1 0.1 0.3-0.2 2-0.1 0.8 0.1 0.9 0.1 0.2 0.1 0.9 0 1 0 0.1 0-0.3 0.1 0.2 0.2 0 0 0.8-0.2-0.2-0.3 1.4 0 1.3-0.1 1.7 0.2 1-0.6 0.7 0.4 1.1 0.4 0.9 0.1 0.7-0.4 0.7-0.4 0.4-0.2 3.1 0 3.8 0-0.3 0.3-2.2 0-2.6 0-1.4 0.3 2 0.2 0.9 0.7q0.7-0.2 1.3-0.4c0.8 0.3-0.3 0.4 1.8 0.3 0.4-0.2-1.5 0.1-1.1-0.1 0.2-0.1 1.4-0.2 1.5-0.2 0-0.1-1.1 0-0.9-0.1 0.3-0.3 4.4 0 1.3 0.1 0.7 0 1.2 0.4 1.8 0.4q0.1 0 0.2-0.1c0.2 0 0-0.1-0.2-0.2-0.2-0.2-0.3-0.3 0-0.3 0.2-0.1 0.8-0.1 2.1-0.1 0.1 0.2-1.6 0.1-1.7 0.1-0.1 0 0.3 0.5 0.3 0.6 0.2 0 4.3-0.2 5.2 0.1-0.3-0.4 3.2-0.1 3.5-0.2 0.1 0-0.2-0.2-0.1-0.2 0.6-0.1 2.5 0.2 3.3 0.2 1 0 0.8-0.1 0.9-0.1 0.4 0 0.1 0.1 0.3 0.1 0.4 0 3.1 0 3.2 0 0 0-0.4-0.2 0.2-0.2 0.1 0 0 0.2 1.7 0.1 2.1-0.1-1.4-0.3-0.6-0.5 1.4 0.3 1.3 0 1.7 0 0.1 0 1 0.3 2 0.3q-1.1 0.1-2.1 0.1c0.7 0.1 2 0 2.6 0.1 0.3 0 0.1 0.2 0.7 0.2 0.1 0 0.6-0.5-1-0.3-0.1-0.2 0.7 0 1-0.1 0.1 0 0.3-0.3 0.7-0.1 0.2 0-1 1 2 0.3 0.1 0-0.2-0.2-0.1-0.2 0.1 0 0.8 0 0.9 0 0.1 0-0.3-0.1-0.2-0.1 0.6-0.2 1.3 0.3 0.2 0.3q0.5 0.1 1.1 0.2c-0.4-0.4 0.6-0.1 1.1-0.1 3.3-0.1 1.1-0.4 1.7-0.5 0.9-0.2 0.2 0.5 1.5 0.3 0.2 0-1.5-0.3 1.7-0.2q-0.7 0-1.4 0.1c0.3 0.3 1.7-0.1 1.8-0.1 1.3 0 0.4 0.1 2.3-0.1 0.2 0 0.5 0.1 0.9 0.1 1.5-0.2-2-0.2-2.1-0.3 0-0.1 3.7-0.1 3.8 0 0.5 0.1-1.7 0-1.2 0.2 0.1 0.1 5.4 0 6.4 0 1.2 0.1 1.8 0.6 1.8 0.1 0.2 0.2 0.3 0.3 0.5 0.3 0.1-0.1 0.2-0.2 0.3-0.2 1.9 0.1 1.9 0.1 3.5 0 0.3 0 0.6 0.2 0.8 0.2 0-0.1-0.1-0.2 0.3-0.3 0.5-0.1 3.5 0.1 3.7 0.2 0.2 0.1-1.3 0.1-1 0.2 1.1 0 2.1 0 3.2 0 0.4 0 0.2 0.1 0.4 0.1 0.1 0 1.6-0.1 1.6-0.1-0.2-0.1-5 0-3.7-0.2 0.2-0.1 1.1 0.2 0.9-0.1q6.5 0.1 12.9 0.1c-2.4 0.3-5.2 0.1-7.8 0.1-0.4 0-1.6 0-1.4 0.2 2.2 0 4.9-0.1 7 0 0.1 0-0.1 0.1 0.1 0.2 0.5 0 2-0.2 2.3-0.2 0 0-0.9 0.2-0.6 0.4 0.7 0.3 0.9-0.4 1.5-0.4 0.4 0 3.5 0.3 4.2 0.1 0.8-0.2-2.2-0.1-2-0.3 2.1-0.2 4.2 0 6.1-0.1 0.1 0-0.2-0.1 0.2-0.1 0.8-0.1 1 0.1 1.3 0.2 0.4 0 1.8 0 2 0 0.1 0-0.2 0.3-0.3 0.3-0.6 0.1-0.8-0.2-0.9-0.2-0.2 0-0.4 0.1-0.6 0.1-0.3 0-0.5-0.1-0.9-0.1-0.3 0 0 0.1-0.3 0.1-0.1 0-1.2-0.4-1.3 0 0 0.2 9 0.3 9.9 0.2q-1.2-0.1-2.3-0.1c1.5 0.1 3.4-0.3 3.5 0.2q2 0 4 0 6.7 0 13.4 0c1 0.1 0.5 0.4 2.2 0.3q-0.7-0.2-1.3-0.3c0.8 0 4.7 0.2 5.3 0.1 0.1 0 0.2-0.3 1.2-0.4 0.8 0 1 0.2 1.4 0.3 0.4 0 0.9-0.1 1-0.1 0.1 0.1 0.1 0.2 0.3 0.2 0.7 0.1 0.1-0.3 0.8 0.1q-0.3 0.1-0.5 0.1c0.8 0 1.9 0.2 0.7 0.3-0.2 0.1 0-0.1-0.2-0.1-5.9 0.1-1.1 0.3 0.9 0.1 0.6 0.2 3.6 0 3.7 0.1 0.1 0-0.4 0.2 0.3 0.3 0.1 0 4.1-0.1 2.7 0.2-0.3 0-2.3 0-2.7 0 1.1 0.4 3.6-0.2 3.9-0.2 1.2 0.1-2.2 0.4 0.4 0.4 2 0 0.1-0.2 0.9-0.4 0.4 0 2.7 0.2 2.6-0.1 0.8-0.1 0.4 0.1 0.5 0.1 0.1 0 1.6-0.1 2.1 0 0 0-0.1 0.2-0.1 0.2 0.1 0 1.6 0 1.7 0 0 0-0.3-0.2-0.2-0.3 0.2 0 1.6 0 1.7 0 0.1-0.1-1.7 0-1.4-0.2 0.8 0 2.1-0.1 2.7-0.3-0.2 0-0.9 0-1.2 0 0.1-0.3 1.8-0.3 1.2 0 0.4-0.2 0.1-0.2 0.3-0.3 0.1-0.1 0.6-0.1 0.7-0.1 0 0-0.5-0.2-0.4-0.2 0.2-0.1 1.8-0.1 1.9-0.1 0.4 0.1-0.9 0.2-1 0.3 0 0 1.1 0.3 1.1 0.3 0 0.2-1.2 0.1-1 0.3q0.4 0 0.9 0.1c-1.2 0.2-3.3 0.1-3.9 0.4 1.7-0.1 3.5-0.1 3.5 0.4 0 0.2-0.7 0.4-0.7 0.4 0.1 0.2 1.2 0 1.2 0q0 0 0 0c0 0.2-1.4 0.3-1.5 0.3-0.1 0.1 0.5 0.5 0.5 0.6 0 0-1 0.1-0.7 0.3 0.4 0.1 1.3 0.1 1.3 0.1 0.2 0.1-1.4 0.2-1.4 0.3-0.1 0 0.8 0.2 0.8 0.2 0 0.1-0.6 0.2-0.9 0.3-0.2 0.2 0.4 0.2 0.3 0.3-0.1 0-1.6 0-1.7 0-0.1 0 0.3 0.2 0.2 0.2 0 0-0.5 0-0.5 0.1 0.1 0 2 0.4 2 0.6 0 0.2-2.1-0.3-0.2 0.5 0 0.1 0.5 0 0.5 0 0.3 0.1-1.2 0.4 0.6 0.3-3.3 0.4-0.4 0.4-0.9 0.7-0.2 0.2-1.5 0.3-1.5 0.3 0.2 0.2 0.6 0 0.7 0.1 0.1 0-1.1 0.2-0.8 0.4 0.1 0 1.4 0 1.4 0 0.5 0.1-0.1 0.2 0 0.3 0.1 0.1 0.8 0.1 0.8 0.1 0.1 0-0.9 0.2-1.1 0.3-0.2 0.1 0.4 0.2 0.3 0.2-0.7 0.2-2.1-0.2-0.7 0.3 0.1 0.1 0.6 0 0.6 0 0.3 0.2-0.6 0.2-0.8 0.4-0.3 0.2 1.1 0-0.1 0.2 0.9 0.1 1.4 0.1 2.4 0.1-2.8 0.1-3.8 0.7-0.7 0.7-1 0-0.9 0.3-1.2 0.3-0.1 0-1.6-0.3-0.9 0.4 0.1 0.1 0.9 0 0.7 0.2-2.1 0-0.1 0.1-0.1 0.1 0 0.5-5 0.2-5.9 0.2-1 0.1-1.9 0.4-2.1 0.4-0.7 0-0.1-0.1-0.3-0.2-0.2-0.1-2.2 0.3-2.3 0.3-0.4-0.1 0-0.3 0-0.3-0.5-0.1-3.3 0-4.1 0 0.1 0.1 1.6 0.1 0.7 0.4-1.2 0.2-1.2-0.4-1.3-0.4q-7.7 0.1-15.4 0.2c0.1 0.3 3.4 0 3.5 0 0.5 0.3-5.2 0.3-5.9 0.2q0.8 0.1 1.6 0.2c-0.9 0.4-2.9-0.1-4.2 0.1-0.5 0 0.4 0.2 0.3 0.2-0.4 0.1-1.2 0-0.6-0.2-1.2 0.2-1 0-1.9 0 0 0 0.3 0.2-0.4 0.2-0.3 0.1-2.1 0.1-2.3 0.2-0.1 0 0.8 0.6 0.9 0.1 1.9 0.2 0.6-0.2 1.4-0.2 0.1 0-0.2 0.3 1.7 0.1-0.4 0.5-2.5 0.2-2.9 0.2-0.7 0.2 2.4 0.4 3 0-0.3 0.4 0.2 0.1 0.9 0.1 0.8 0 0.4 0.1 0.8 0.1 1.2 0 0.7-0.3 1.6 0-0.9-0.8 1.6-0.2 2.4 0q-1.8 0.1-3.6 0.2 0.1 0 0.2 0.1-0.5 0-0.9 0 0-0.1 0.1-0.1c-1.6 0.2-2 0-2.1-0.1-1.7 0-3.7 0-5.4 0.1-0.2 0-0.1 0.1-1.4 0.1q-0.3 0-0.6-0.1c-0.6 0 0-0.2-0.7-0.2-0.8 0.5-0.8 0.1-1.1 0.1-0.7 0-1.1 0.2-1.2 0.2-0.9 0-2.2 0-3.2 0 0 0 0.5 0.1-0.1 0.1-0.2 0-2.3-0.7-4-0.4q0.7 0 1.4 0.1c-0.6-0.1-4.3 0.1-3.4 0.3 0.5 0.1 1.9-0.3 2.1 0.1-1.3-0.1-8.2 0.1-8.7 0-0.1 0 0.3-0.2 0.2-0.2 0 0-1.6 0-1.8 0-0.2 0 0.5-0.1 0.5-0.2-0.1 0-2.1-0.1-2.2 0.1 0.5-0.1 1.9 0 1.2 0.1-0.1 0.1-0.6-0.1-0.7 0-1 0.2 2.1 0.1 2.5 0.1-1.9 0.2-4.9 0-7.2 0.2-0.9-0.2 1.4-0.3 0.3-0.4-2.1-0.2-0.5 0.2-0.6 0.2-0.5 0.2-2.4-0.6-2.4 0-0.7-0.1-0.5-0.2-1.6-0.1q0.2 0.1 0.5 0.1c-1.3 0.4-3.8-0.5-3.6-0.5 0.5-0.2 1.8 0.1 1.9 0.1 0.2 0 0.7-0.6 2.5-0.1 0.8-0.4-2.9-0.3-1.2-0.6-1.2 0.1-5.9-0.2-6.5 0-0.1 0 0.3 0.4-0.9 0.2-0.5-0.1 0.8-0.1 0.5-0.2-0.5-0.1-4.9-0.1-8.6-0.1-2.1 0-3.9 0.1-4.6 0.1-0.2 0-0.1-0.2-0.3-0.2-0.3 0.1-1.8 0.2-2.5 0.2 1.5 0.2-1.3 0.2-2.1 0.2-1 0-1-0.3-1.5-0.3-1.8-0.2-4.6 0.3-6-0.1 0.1 0.4-2.4-0.3-3.6-0.3-0.8 0-2.1 0.3-0.9 0.5-1.6 0-3.2 0.1-4.7 0.1-0.2 0 0.1-0.1-0.3-0.1 0 0-0.1 0.1-0.4 0.1-2.9 0.1-1.5-0.1-2-0.2q-0.5-0.1-0.7-0.1c1.7 0 3.6-0.1 4.1-0.1-0.4-0.3-3.7 0.1-4.7 0 0 0 0.1-0.2 0.1-0.2q0 0 0 0c-0.4 0-2.7 0-2.2 0.2 0.1 0.1 1.2 0.1 2.4 0.1-0.3 0-0.1 0.2-0.1 0.2-0.8 0.1-2.5-0.1-3.2-0.1-0.1 0-0.1 0.1-0.1 0.1-0.6 0-0.4-0.4-1 0-1-0.4 2-0.1 1.8-0.3-0.2-0.3-6.8-0.2-6.8 0.2q-0.1-0.1-0.3-0.2c-0.4-0.1-2.3-0.1-2.6 0-0.1 0-0.1 0.3-0.1 0.3-0.2 0.1-2.5-0.2-3.3 0q0.7 0 1.4 0.1c-2.8 0-2.4 0.1-1.4 0.2q0 0 0.1 0c0.7 0.1 1.6 0.2 1.6 0.2 0.1 0.1-1.7 0.1-2.8 0-0.8 0-1.3-0.1-0.9-0.2 0.1 0 0.5 0 0.9 0 0.5 0 0.9 0 0.3-0.1q-0.1 0-0.3 0c-0.5 0-1.3 0-1.3 0-0.3-0.1 0.6-0.2 1.3-0.3 0.5-0.1 1-0.2 0.8-0.3q-0.4 0.1-0.8 0.1c-0.6 0.1-1.1 0-1.7 0.1-0.4 0-0.5 0.2-0.5 0.2-0.7 0-0.3-0.2-0.6-0.2-0.1 0-1.5 0.4-1.2-0.1-4.6 0.3-1.3 0.3 1.5 0.3-0.9 0.2-2.6 0.1-3.4 0.2-0.3 0-0.1 0.1-0.6 0.2-1 0-5.7-0.2-6.9-0.3 0.8 0 0.6-0.2 0-0.2-0.6 0-0.1 0.3-0.2 0.3-0.1 0-2.9-0.1-3.3-0.1 2-0.1 1.6-0.2-0.2-0.3q0.4-0.1 0.8-0.1c-1 0-3.2-0.3-3.7-0.2-0.1 0 0.2 0.2 0.1 0.2-0.5 0.1-2.2-0.1-2.3-0.1-0.1 0.1 0.7 0.2 0.4 0.3-0.1 0-0.8-0.2-1.5-0.2-0.3 0-0.1 0.2-0.2 0.2-0.5 0.1-0.2-0.2-1.2-0.2-0.7 0.1-1.3 0.3-2.3 0.2 3.3 0.3 0.5 0.2-0.9 0.3-0.2 0 0 0.2-1.4 0.1 2.9-0.4-0.8-0.3-1.5-0.3-0.1 0-0.1-0.1-0.5-0.2 0 0 0.1 0.2-0.3 0.2-3.2 0-1.2-0.1-1.8-0.2-0.2-0.1-1.8 0.1-2.2 0.1-0.1 0-0.1-0.1-0.5-0.1-0.6 0-1.3 0.1-1.7 0.1 0 0 0-0.2-0.9-0.2-0.2 0.1-0.5 0.1-0.2 0.2 1.2 0.2 3.3-0.1 4.5 0.1 1.2 0.2-2.4 0.1-2.6 0.1-0.1 0 0.6 0-0.1-0.1-0.6 0-1.7 0.3-2.7 0.2 0 0-0.8-0.3-0.7-0.3 0 0 1.1 0 1-0.1 0 0-0.8 0-0.9-0.1-0.1-0.1-0.4-0.8-0.5-0.8-0.4-0.1-0.1 0.1-0.4 0.1-0.5-0.1-2.4-0.3-2.5 0q0.5 0 1 0c-1.8 0-1 0.1-1.3 0.2-0.2 0-0.2-0.2-0.8-0.2 0 0-1.1 0-1.8 0-0.4 0-0.7 0-0.7 0.1q0.5-0.1 0.7-0.1c0.5 0.1 0.2 0.2 0.2 0.2 0.3 0 0.6-0.1 0.9-0.1 2.2 0.1 0 0.3 0.5 0.3 0.2 0.1 0.5-0.1 0.6-0.1 0.3 0.1 0.3 0.2 0.4 0.2 0.4 0 0-0.3 0-0.3 0.3-0.1 1.7 0.1 0.9 0.4 0.5 0.1 0.5-0.3 0.9-0.1 0.8 0.2-0.4 0.2-0.7 0.2-1.2 0.1-1.5 0-3.2 0q-0.2 0-0.5 0.1c-0.4 0-0.8 0.1-1 0.1-0.2 0-1.8-0.6-1.9 0.3-0.6-0.1-1.6-0.7-2.3-0.7-0.6 0-0.4 0.3-0.4 0.3-0.1 0.1-0.8 0-1.1 0.1-0.3 0-0.1 0.1-0.6 0.2-1.1 0.1-1.1-0.2-1.2-0.3-1.3-0.2-0.7 0.2-1 0.3-0.3 0-4.1-0.2-4.9-0.1q0.5-0.1 0.9-0.2c-0.5-0.2-1.2 0.1-1.2-0.3-0.1 0.6-1.3 0.2-1.7 0.2-0.1 0-0.1 0.1-0.3 0.1-0.7 0-2.3-0.1-2.7 0-1.6 0.1 2.6 0.5 2.9 0.6-0.6 0-4.4 0-2.7 0.3 0.3 0.1 0.8-0.2 0.9-0.2 1 0 0.2 0.2 0.3 0.2 0.1 0 0.8-0.2 1-0.1 0.1 0-0.3 0.2 0.6 0.2-0.4 0.2-3.2 0-3.5 0-0.2 0 0.6 0.4-1.7 0q0 0.1 0.1 0.1-2 0-3.9 0c0.1-0.1 0.9-0.3-0.1-0.2-0.5 0-0.1 0.2-0.1 0.2-0.5 0-8.9-0.2-10.6-0.2-0.5 0-2.1 0.1-2.2 0.1-0.7 0-3.2-0.1-3.7-0.1-0.3 0 0 0.1-0.3 0.1-0.2 0 0-0.1 0-0.1-0.5-0.1-2.6-0.1-4.4-0.1-1 0-1.8 0-2.2-0.1 0.3 0 1.3 0 2.3-0.1 0.9 0 1.8-0.1 1.8-0.2 0 0-0.9-0.2-1.1-0.1-0.1-0.1-0.4 0-0.7 0.1-0.4 0-0.8 0.1-1.1 0.1 0 0 0.2-0.3-0.8-0.3-0.3-0.1-1.2 0.1-2-0.1-1.3 0-8-0.4-8.4-0.2 0 0 0.9 0.1 0.3 0.2-0.9 0.1-0.1-0.3-1.1-0.4-0.1 0-2.9 0-3 0-0.8 0.2 1.6 0.4 1.5 0.4 0 0.1-2 0.1-2.1 0.1-0.1 0 1.5-0.3-0.4-0.3q0.3 0.1 0.7 0.2c-1 0-1-0.2-1.3-0.2-0.6-0.1-1.4 0.3-2.5-0.2-0.3-0.1 0.2-0.3 0.2-0.3-0.4-0.2-0.8 0.3-1.3-0.1-0.1 0 1.1-0.2-1-0.2q0.2 0 0.4 0.1c-0.3 0-2.4 0-2.7 0-0.9-0.1-0.1-0.3-1-0.3 0.6 0.3-2.1 0.3-1.9 0.1-0.4 0.3-2.6-0.1-3.6-0.1-0.7 0-2 0.1-2.2 0.1-0.3-0.1-0.2-0.3-0.7-0.4-0.1 0-1.5 0.2-2.6-0.1-0.3-0.1-0.8-0.5-0.3-0.6 0.7-0.1 2.1 0.3 2.1 0 0-0.2-1.9-0.1-2.4-0.2-2.3-0.2-1-0.4-1-0.5-0.2-0.2-1.5-0.2-1.5-0.2-0.2-0.1 0.7-0.2 0.7-0.3 0-0.2-1.2-0.5-0.9-0.5 0.4-0.1 1.5 0.2 1.6 0.2 0.9-0.2-0.4-0.6-0.7-0.7-0.1-0.1 0.3-0.2 0.2-0.2-1.3-0.3-0.3 0.5-1.2 0.4-0.8 0 0.3-0.2 0.2-0.3 0 0-1 0-1.1-0.1-0.1 0 2.4-0.4 2.3-0.6q-1.2 0-2.4 0c0-0.2 1.1 0 1.2 0 0.3-0.1-0.4-0.2-0.4-0.3 0.1 0 0.9-0.2 0.2-0.3-0.3 0-0.8 0.1-1.7-0.1 3.1-0.1 1-0.3 0.9-0.4-0.1-0.1 1.4-0.3-0.4-0.3-0.1-0.5 0-0.2 0.5-0.2 0.7-0.1-0.8-0.3 1.5-0.1-0.1-0.3-1.9-0.3-2-0.3-0.1-0.1 0.3-0.2 0.1-0.2-1.6-0.5-0.5-0.3-1-0.6 0 0-1.6-0.2-0.4-0.2 2.3 0 3.2 0.4 3.6-0.3-1.7-0.4-3.7 0-4.2 0-0.8 0 0-0.1-0.1-0.2 0 0-0.6 0-0.7 0-0.4-0.6 3 0.1 4.1 0q-0.5-0.1-0.9-0.2 0.6 0 1.2 0c-1.9-0.2-0.1-0.1 0.4-0.5 0.1-0.1-1.1 0 0.3-0.2-1-0.1-0.7-0.2-1.6-0.1 0-0.2 2.1-0.3 2.9-0.3-2.9-0.3-1.2 0.4-3.8-0.1-0.4 0.2 0.8 0.2 0.7 0.3-0.4 0.1-1.2-0.1-2.2 0.3-0.2 0 0.5 0.3-0.5 0.2-0.1 0-0.8-0.2-0.8-0.2 0.1-0.1 0.8-0.1 0.8-0.1 0-0.1-0.7-0.1-0.7-0.1 0-0.2 0.6 0 0.5-0.1-0.2-0.1-2.8-0.6 0.6-0.4-2.8 0.1-0.4 0.2 0.7 0.1 0.3 0 0.4-0.1 0.8-0.1 0.5 0 1.1 0 1.4 0 0.2 0-1.4-0.3 1-0.2-1.2-0.3-3.3 0-4.5-0.3-2.3-0.4 1.7-0.4 2.1-0.4 0.1 0-0.3-0.2-0.2-0.2 0.1 0 2.4 0.1 2.6 0 0.3-0.1-0.8 0-0.9-0.1 0-0.1 2.7-0.2 1.2-0.3-1-0.1-2.9 0.2-3.2-0.2q2.3 0 4.5 0.1-1.2-0.3-2.4-0.6c1.7 0.1 3.1 0.3 4.7 0.1-3.8-0.6 1.3-0.3 1.3-0.4 0.1 0-1.4-0.5-1.7-0.5 1.4-0.1 5.4-0.1 3.1-0.6 0.4 0.1 1.4-0.1 1.4-0.2-0.1-0.2-2.4-0.1-2-0.3 0.4-0.2 1 0.1 1.7 0.1 3.4 0 2.5-1.1 5.9-0.9q-0.1 0-0.2-0.1 5.6 0.3 11.1 0.5c1.5-0.3 5.4-0.4 7.2-0.3 0.4 0 2.3 0.3 2.4 0.3 0.3 0-1.1 0-0.5 0.2 0.1 0 3.3 0.1 3.1-0.1-0.4 0-1.5 0.1-1.7 0-0.6-0.1 1.8-0.1 4.3 0 2.2 0 4.5 0.1 4.7 0.1q-0.3-0.1-0.6-0.2 0.9 0 1.8 0.1zm-28.8 14.3c-0.3 0.2-1.3 0-1.8 0.1-0.8 0-2.1 0.7-1.5 0q1.7 0 3.3-0.1zm-2.5 0.5c0.2 0 0.9 0 1.2 0-0.4 0.2-1.8 0-1.2 0zm18.9 0.2c-0.8-0.1-0.2-0.5 0.4-0.3 0.1 0 0.6 0.5-0.4 0.3zm-7.9-0.4c0 0 0.7 0.1 0.7 0.1 0.6 0.1-1.4 0.1-0.7-0.1zm37.9 0.7c-0.8 0-0.2 0.4 0.3 0.2 0.1 0-0.2-0.2-0.3-0.2zm-0.5 0c-0.7-0.4-2 0.3-0.9 0.2 0.1 0 0.9-0.2 0.9-0.2zm-32.2-0.5c0.1-0.1 0.9 0 1.2 0 0 0.1-0.9 0-1.2 0zm19.6 0.4c0-0.1-2.7-0.1-2.9 0 0.5 0 2.9 0.1 2.9 0zm6.9 0c-0.1 0-1 0-1 0.1 0.5 0.1 1.3 0 1-0.1zm13.7 0.3c0 0-0.7-0.6 1-0.2 0.2 0-0.7 0.2-0.6 0.2q0.3 0.1 0.5 0.1c-0.8 0-1.6 0-1.7 0-0.3-0.2 0.7-0.1 0.8-0.1zm7.2-0.3c0.1-0.1 1.1 0 1.4 0 0 0-0.2 0.2 0.3 0.2 0.3 0-0.2-0.2 0.5-0.2 0.7 0.1-0.2 0.2-0.2 0.2 0.1 0.1 1.2 0 1.2 0.1 0 0.1-1.2 0-1.5 0-0.4 0.1 0 0.3-0.6 0.2-0.4 0-0.2-0.3-0.2-0.3-0.1-0.1-1.5 0.1-0.9-0.2q0 0 0 0zm-6.1 0.4q-0.1 0-0.2 0 0.1 0 0.2 0zm-52.8-1.4c0.4 0.2-0.8 0.2-1.2 0.1 0-0.1 1.1-0.1 1.2-0.1zm53.5 1.1c1.1 0.1 0.3 0.2-0.7 0.3 0.3-0.1 0.3-0.3 0.7-0.3zm-32.4-0.5q0.1 0 0.1 0.1-0.1-0.1-0.1-0.1zm2.7 0.2c0.9-0.2-0.9-0.2-0.9-0.1 0 0.1 0.9 0.1 0.9 0.1zm21.5 0.3c-0.1 0 1.2-0.5-0.7-0.1 1 0 0 0.1 0 0.1 0 0.2 1.7 0.1 2.1 0.1 0.3-0.2-1.1 0-1.4-0.1q0 0 0 0zm26.5 0.2c-0.2 0.1-0.9 0.1-1.4 0.1 0.2-0.2 0.9-0.1 1.4-0.1zm127.9 0.4c-3.4 0.1-3.8-0.5-0.8-0.3 0.1 0 1 0.2 0.8 0.3zm-28.8-0.1c-0.3-0.2 0.8-0.3 1.4-0.2 0.2 0.1 0.8 0.3 0.1 0.4 0-0.3-1-0.5-1.5-0.2zm-116.8-0.6c0.4-0.2 1.4-0.1 1.9 0-0.3 0.1-1.4 0-1.9 0zm134.6 0.4c-0.4 0-0.6 0.2-0.6 0.2 0.3 0.1 1-0.1 0.6-0.2zm-137.9-0.5c0-0.1 1.3-0.2 1.4 0.1-0.3-0.1-1.3-0.1-1.4-0.1zm20.1 0.3c-0.2 0 0.9-0.1 1.2-0.1 0 0.1-1.1 0.1-1.2 0.1zm112.1 0.3c-0.3 0-1.1 0-1.2 0.1-0.1 0.1 1 0 1.2-0.1zm58.8-0.6c0 0-1.2 0.3-1.8 0.3-1-0.2 1.7-0.3 1.8-0.3zm-49.8 0.4c1 0.2-0.1 0-0.1 0.2 0.7 0 2.4 0 1.2-0.2-0.2 0-0.8 0-1.1 0zm-0.9-0.1c-0.1 0.1-0.8 0.3-0.2 0.3 0.3 0 0.7-0.3 0.2-0.3zm43.1-0.1c-0.9-0.2 3.2-0.2 3.3-0.1q0.1 0 0.1 0c0.2 0 0.9-0.1 1 0.1-0.2 0-0.8 0-0.9 0q0 0-0.1 0c-0.2 0.1-3.2 0-3.4 0zm-6.8-0.2c1-0.3 1.2 0.2 1.1 0.2-1.1 0.2-0.4-0.1-0.4-0.1-0.1-0.1-0.9 0.1-0.7-0.1q0 0 0 0zm5.4 0.1c0 0 0.9 0 0.9 0 0.7 0.2-1.7 0.1-0.9 0zm-168.5-0.3c0.6 0.1 0 0.3-0.4 0.2-0.1 0-0.2-0.2 0.4-0.2zm126.3 0.6c-0.2-0.1-3.8-0.2-3.6 0.1 0.3 0 4.5 0.1 3.6-0.1zm-27.2 0c0.6 0-0.1 0.2-0.4 0.1-0.2 0 0.2-0.1 0.4-0.1zm-114.4-0.7c-0.7 0.1-0.5-0.3 0.1-0.2 0 0.1-0.1 0.2-0.1 0.2zm119.5 0.8c-2.2 0.2-1.7-0.6 1.2-0.4q-0.1 0.1-0.3 0.1c3.3 0.2 0.2 0.1-0.6 0.1-0.3 0.1 0 0.2-0.3 0.2q0 0 0 0zm-8.5-0.1c-1.1-0.3-0.5-0.4 0.5-0.4 0.9 0.1 2.1 0.1 2.6 0.1-1.1 0.2-2.6 0.2-0.6 0.4-2.9 0.1-1.7-0.1-1.8-0.2q-0.1 0-0.2 0c-0.2 0.1-0.4 0.1-0.5 0.1zm5.6 0c0.1-0.1 1.1 0.1 1.4 0-0.5 0.2-2.2 0.1-1.4 0zm54.7-0.2c0.1-0.1 0.3-0.3 1-0.2-0.2 0.1-0.7 0.1-1 0.2zm-223.1-1.8c-0.5 0-1.6-0.1-1.2 0 0 0.1 1.2 0.1 1.2 0zm182.8 1.9c-0.1 0-2.9 0-1.9 0.1 0.3 0.1 2.8 0 1.9-0.1zm14.4-0.1c-0.2 0-1.2 0.1-1.2 0.1-0.1 0.1 1.1 0.1 1.2-0.1zm-199.8-2.1c-0.1 0-1.6 0-1.4 0.1 0.3 0.1 1.6 0 1.4-0.1zm71.9 1.4c0.1 0 0.3 0.2 0.4 0.2q0 0 0.2 0c0.6 0 2.1 0 1.3 0.1 0 0-0.6 0-1.3 0-1.1 0-2.4-0.1-2.7-0.1-0.1-0.2 1.3 0 1.7 0 0 0 0.1-0.2 0.4-0.2q0 0 0 0zm157.6 0.5c0.1-0.1 2.9-0.2 2.9-0.1q-1.5 0.1-2.9 0.1zm-1.4 0c-0.6-0.1 0.8-0.1 1.2-0.1 0 0.1-1.1 0.1-1.2 0.1zm-33.6-0.3c-0.3 0 0.6 0.3 0.4 0.3-0.1 0-0.7-0.1-0.9 0-0.1 0 0.6 0.2 0.7 0.2 0.3 0 0-0.1 0.3-0.1 1-0.1 1.8 0.1 2.7 0 0.1 0-0.5-0.1 0.1-0.1 0.1 0 0.8 0.2 1.6 0.2 1.8-0.6 3.1-0.1 5.4-0.3-0.1 0-1.8-0.1-1.9-0.1-1.9-0.1-5.3-0.1-7.3-0.1-0.5 0-0.3 0.1-0.5 0.1-0.2 0 0-0.2-0.6-0.1zm-191.7-1.4c-0.2-0.2-1.1-0.1-1.6-0.2 0.2 0.2 1.1 0.1 1.6 0.2zm212.8 1.6c-0.2 0.1-1.1 0-1.1 0.1-0.1 0 1.1 0.1 1.1-0.1zm-130.4-0.2c0.1 0 0.7 0 0.7 0 0.6 0.2-1.3 0.1-0.7 0zm15.6 0.2c0.5 0 1-0.1 1.1 0.1-0.3 0-1.2 0-1.1-0.1zm21.5 0.2c-0.1-0.3 1.3-0.1 1.6-0.1-0.1 0.1-1.6 0.2-1.6 0.1zm103.3-0.6c0.9 0 0.7-0.3 1.3-0.1 0.1 0 0.4 0.7-0.6 0.4-0.2 0 0.5-0.2-0.7-0.3zm-50 0.6c0.2-0.1 0.9-0.1 1.4-0.1-0.1 0.2-1.1 0.1-1.4 0.1zm-178.4-2.2c-0.4-0.2-2.4-0.1-1.9 0 0.1 0 1.7 0 1.9 0zm64.7 1.6c0.8-0.2-0.9-0.3-1.4-0.1 0.2 0 1.3 0.1 1.4 0.1zm55.2 0.4c0 0 0.9 0 0.9 0 0.7 0.2-1.7 0.1-0.9 0zm-21.4-0.3c0.3-0.1 2.3 0 2.8 0.1-0.5 0.2-3.2 0.1-2.8-0.1zm126.1 0.1q1 0 1.9 0c-0.1 0.2-1.8 0-1.9 0zm-101.5 0.2q0 0 0.1 0-0.1 0-0.1 0zm87.1-0.2c-0.6-0.1-0.5 0.1-0.4 0.2 0.4 0 1-0.2 0.4-0.2zm-205.2-1.7c-0.2-0.2-1.1-0.1-1.6-0.2 0.1 0.2 1.2 0.2 1.6 0.2zm160.9 2c-0.7-0.2 2.1-0.4 2.7-0.3 0 0.1-2.6 0.3-2.7 0.3zm-103.8-0.9c0-0.1-1.2 0-0.9 0.1 0.1 0.1 1 0 0.9-0.1zm107.9 0.7c0.2-0.1 0.8 0.1 0.6 0.2-0.2 0.1-0.7-0.2-0.6-0.2zm23.3-0.2c-0.1 0-1.6 0.1-1 0.3 0.5 0.1 0.5-0.1 0.6-0.1 0.2 0 2.6 0.2 0.4-0.2zm-42.9 0.3c0.5-0.1 1.2 0 1.9 0-0.3 0.1-1.7 0.1-1.9 0zm-83.8-0.7c-0.1-0.1-3.9-0.2-1.8 0 0.2 0 2.3 0.2 1.8 0zm161.8 0.3q-0.2 0-0.4 0 0.2 0 0.4 0zm-10.3 0.1c0.2-0.1-0.9-0.1-1.2-0.1-0.1 0.2 1.1 0.1 1.2 0.1zm-65.8 0.1c0.3 0 1 0 1.4 0-0.1 0.1-1.3 0.1-1.4 0zm-24.5-0.1c0.7 0 1.6 0 1.6-0.1q0 0 0.1 0c0 0.1 0.8 0 1.1 0.1 1.9 0.2-7.4 0.1-2-0.3q-0.4 0.2-0.8 0.3zm-32.1-0.3c-0.4-0.2-1.5 0-1.2 0.1 0.2 0 1.6 0 1.2-0.1zm15.1 0c-0.1 0-1.1 0.1-1.2 0.2 0.6 0.1 1.8 0 1.2-0.2zm-18.1-0.2c-0.2 0-0.6 0.2-0.5 0.2 0.2 0.1 0.9-0.1 0.5-0.2zm133.8-0.2c-0.4 0-1.5 0.1-1.8 0.3q-0.1 0-0.4-0.1 0 0 0 0c-0.3-0.1-9.8-0.1-3.4 0.2 0.2 0-0.1-0.1 0.7-0.1 0.1 0 0.1 0.1 0.3 0.1 0.3 0 2.4 0.1 2.8 0q0 0 0 0c0.5 0.2 2.1-0.3 1.8-0.4zm-113.5 0.4c-0.2 0-0.9 0-1 0.1 0.3 0.1 1.5 0 1-0.1zm-46.5-0.5c-0.4-0.1-1.5 0-1.2 0.1 0.2 0.1 1.7 0 1.2-0.1zm39.6 0.5c2.5 0.2 0.6 0 1-0.1q-0.5 0.1-1 0.1zm132.1-0.1c-0.4 0 0-0.3 0.5-0.2 0.1 0.1-0.3 0.2-0.5 0.2zm18.2-0.2c-0.4-0.3 1.3-0.2 0.6 0 0 0-0.6 0-0.6 0zm-12.7 0c-0.3 0.1-0.5 0.2-1.3 0.1 1.2 0 0.1-0.2 1.3-0.1zm-114.3 0.5q0 0 0 0 0 0 0 0zm-39.1-0.4c-0.3-0.1-1.2-0.1-0.9 0 0 0 0.8 0.1 0.9 0zm134.4 0.1q0.1 0 0 0.1 0-0.1 0-0.1zm-129.6-0.2c0 0.2 1.3 0.2 1.4 0.2 0.7-0.2-0.9-0.2-1.4-0.2zm-37.5-0.5c-0.1 0 0.4 0.3 0.7 0.2 0.2-0.1-0.4-0.3-0.7-0.2zm188.7 0.4c0.4 0 1 0 1.1 0.1-0.3 0-1.1 0-1.1-0.1zm9.4-0.1c-0.5 0.1-1.7 0.1-2.4 0.1 0-0.2 1.9-0.1 2.4-0.1zm-28 0.2c-0.1 0-1.2-0.1-1 0.1 0.2 0.2 1.3 0 1-0.1zm-168-0.3c0.5-0.1-0.6-0.4-1.1-0.2-0.3 0.1 1 0.2 1.1 0.2zm27.9 0.2c-0.7 0.1 0.9 0.2 1.1 0.1-0.3 0-0.9-0.1-1.1-0.1zm21.5 0.1c-2-0.5-0.9 0.3-0.6 0.2 0.1 0 0.6-0.2 0.6-0.2zm-114-2.1c-0.3 0.1 0.8 0.3 0.9 0.2 0.1-0.1-0.7-0.2-0.9-0.2zm144 2.5q-0.2 0-0.3 0 0.1 0 0.3 0zm-57.3-1.1c1.4 0.6 1.3 0.1 1.4 0.1 0.3 0 0.9 0.2 1.4 0.2q-0.9 0.1-1.7 0.2c0.4 0 4.3 0.3 4.4 0.2 0.1-0.2-1.1-0.1-1.1-0.1-0.1-0.1-0.3-0.4-0.4-0.5-0.2 0-3.4 0-4-0.1zm23.1 0.7c0.3 0 0.4 0.2 0.6 0.1 0 0 0-0.1 0.2-0.1q-0.4 0-0.8 0zm-25.6-0.2c-0.4-0.2 1.4-0.1 1.5-0.1 0.3 0.1-1.2 0.2-1.5 0.1zm15.1 0.1c0 0-1.4-0.1-1.4 0 0.4 0.1 2.2 0.2 1.4 0zm11.5 0.1c0.5 0 1.4 0.1 1.3-0.1q0 0 0 0-0.6 0-1.3 0.1zm-44.6-0.8c-0.9-0.3-0.4 0.1 0.3 0.2 0.3-0.1-0.1-0.1-0.3-0.2zm-2.8-0.3c-0.3 0-2.8 0-2.4 0.2 0.1 0 1.6-0.1 1.6-0.1 0.2 0-0.3 0.2 0.5 0.2-0.1-0.1 0.4-0.3 0.3-0.3zm2.1 0.1c-0.9-0.3-1.1 0.2-0.4 0.2 0.2 0 0.5-0.2 0.4-0.2zm3.6 0.1c-0.3-0.1-1.2-0.1-1.7 0q1.1 0.1 2.3 0.1c0.1-0.1-0.3-0.1-0.6-0.1q0 0 0 0zm196.8-0.6c-0.7-0.1 0.9-0.2 1-0.2 0.2 0.1-0.7 0.2-1 0.2zm-271.2-5.1c-0.2-0.1-0.3-0.3-0.8-0.2q0.7 0.2 1.3 0.4c0.4-0.3-0.3-0.2-0.5-0.2zm-1.6-1.2c0 0-0.3-0.5 0.5-0.1 0.5 0.2-2.4 0.3-2.9 0.1 0.6-0.1 1.8 0 2.4 0zm-5-2.2c-0.1 0 1 0 1.2 0 0.6 0.2-1.1 0.2-1.2 0zm3.5 0.2c-0.5-0.1 0.6-0.1 0.9 0 0.1 0.1-0.9 0-0.9 0zm267.1 1.6c-0.5-0.3-1 0.4-0.2 0.2 0.1 0 0.2-0.2 0.2-0.2zm-269.5-2.2c0.5 0.1-0.7 0.1-1 0 0 0 0.9 0 1 0zm269.1 1.5c-0.7-0.3-0.5 0.5-0.4 0.5 0.4 0.2 1.7-0.2 2-0.2-2 0.1-1.2-0.2-1.6-0.3zm-3.4 0.5c-0.7 0 1.1 0.2 1.4 0-0.3 0-1.2-0.1-1.4 0zm-4.2-0.2c-0.3-0.1-1.4-0.1-1.6 0 0.4 0 1.5 0.1 1.6 0zm-0.8-0.4c-0.6-0.2-0.7 0.3-0.1 0.2 0.1 0 0.1-0.2 0.1-0.2zm-3.3-0.1c-0.3-0.2-0.8 0.2-0.2 0.2 0.2 0 0.3-0.2 0.2-0.2zm10.8-0.6c-0.6-0.1-1.3 0.2-0.1 0.2q-0.6 0.1-1.2 0.2c1.5 0.2 1.4-0.3 1.8-0.3 0.6 0.1 0.6 0.4 0.5 0.5 0.5-0.2 2.6-0.2 3.8-0.3-1.1-0.1-2.8-0.2-3.9-0.3-0.3 0-0.6 0.1-0.8 0.1-0.5 0-0.1-0.1-0.1-0.1q0 0 0 0zm-15 0.6c-1.1-0.2-0.4 0.2 0.2 0.2 0-0.1-0.2-0.2-0.2-0.2zm-254.7-2.8c1.5 0.3 0.4 0.5 3.5 0.2-1.3 0.2 0 0.2-0.3 0.3-0.2 0.1-1 0-0.5 0.2-0.6-0.2-3.2-0.3-3.3-0.3q0 0 0 0c0 0 0.2-0.4 0.6-0.4zm263 2c-0.4-0.5-0.5 0.4-1.2-0.1-1 0.7 2.7 0 3.1 0.6-4-0.1 2.6 0.5-0.1-0.3 2.2 0.3 0.7-0.1 1-0.3 0.4-0.1 1.7 0 1.7-0.2q0 0 0 0-1.2 0.1-2.4 0.1c0.8 0.4-0.9 0.3-1.4 0q-0.3 0.1-0.7 0.2zm4.5 0.4c-0.1 0-1.8 0.1-1.7 0.2 0.2 0 2.7-0.1 1.7-0.2zm7.6-0.2c-0.7 0.1-1.6 0-1.9 0.1 0.6 0 1.5 0.1 1.9-0.1zm-31.8 0.3c-0.8 0.1 1.6 0.2 0.9 0 0 0-0.9 0-0.9 0zm17.9-0.4c-0.8-0.1-0.4 0.4 0.2 0.3 0 0-0.1-0.2-0.2-0.3zm-260-2.1c0.1-0.1 2.2 0 2.6 0.1-0.2 0.1-2.6 0.1-2.6-0.1zm274.9 1.7c-1.2-0.4-2.9 0.1-3 0.1-0.2 0 0.1-0.2 0-0.2-0.1 0-2 0-2.1 0-0.1 0.1 0.3 0.3-0.1 0.4 0.8-0.1 4.3-0.1 4.5-0.1 0.1 0-0.9-0.3 0.7-0.2q0 0 0 0zm-3.5 0.1c0.5 0.1-0.9 0.1-1.2 0.1-0.7-0.1 1.1-0.1 1.2-0.1zm-3.3-0.1c-0.1 0-1.5 0-1.6 0.1 0.6 0.2 2-0.1 1.6-0.1zm-15.5 0.2c-0.4 0-1.4-0.1-1.4 0 0.3 0 1.3 0.1 1.4 0zm-245.2-2.7c-0.6-0.1 0.8-0.1 1.2-0.1 0 0.1-1.1 0.1-1.2 0.1zm252.5 1.8c-0.2 0-4.6 0.1-5.2 0.1 0.6 0.1 4.9 0.1 5.1 0.1 0.1-0.1 0.1-0.2 0.1-0.2zm9.5-0.2c0.4-0.1 0.6 0.1 0.7 0.1 0.5 0 1.5-0.1 1.3 0.1-0.9 0-2.8 0.2-2-0.2zm-17.1 0.2c-1.5 0.1 1.3 0.3 1 0.1-0.1 0-0.9-0.1-1-0.1zm8.1-0.1c0.3-0.1 4.7 0 5.4 0-0.6 0.2-1.2 0-2 0.1-0.2 0-0.2 0.1-0.2 0.1-0.4 0-0.1-0.1-0.3-0.1-0.2 0-3.4 0.1-2.9-0.1zm9.2-0.2c0.2-0.1 3-0.2 3.1-0.1 0.8 0.2-2.9 0.2-3.1 0.1zm-9.6 0c0.4-0.3 2.6-0.1 1.1 0-0.1 0.1-0.7-0.1-1.1 0zm-7.6 0.1c0-0.1-1.6-0.1-1.6 0 0.2 0 2.5 0 1.6 0zm0.8-0.4c0 0 0.4 0.2-0.4 0.2 0 0-0.1-0.2-1.1-0.1-0.1 0-0.4 0.1-0.4 0.1 0.9 0.4 3.8-0.3 1.9-0.2zm16.4 0.1c-0.1 0 0.2-0.3 0.6-0.2 0.1 0.1-0.2 0.2-0.6 0.2zm-22.1 0.2c0.9-0.2-1.9-0.2-2.1-0.1 0.1 0.1 2 0.1 2.1 0.1zm-238.6-2.7q0 0 0 0c0.7 0.1 0.3 0.2 0.3 0.2 1.6 0.2 1.2-0.1 1.4-0.1 0.6-0.1 0.5 0.3 1.4 0.2-1.5 0.1-0.1 0.1-0.1 0.2 0.1 0.6-2-0.3-2.8-0.2-0.1 0 0.7 0.2 0.4 0.2-0.8 0.2-3.5-0.7-0.6-0.5zm261.5 2.3c0.4-0.2 3 0 2.3 0.1-0.1 0-2.8 0.1-2.3-0.1zm-124.7 0.2c0.6-0.1-0.9-0.3-1.2-0.2-0.1 0.1 0.9 0.3 1.2 0.2zm-10.5-0.6c-0.7 0-1.5 0.6-0.6 0.5 0.1 0 0.7-0.4 0.6-0.5zm50.1 0.4c-0.8-0.2-0.7 0.2-0.2 0.2 0.2 0 0.2-0.2 0.2-0.2zm-30.4 0c-0.1 0-1 0-1 0.1 0.4 0.1 1.5 0 1-0.1zm30.7-0.1c-0.5 0.1 0.3 0.4 0.9 0.1-0.3 0-0.9-0.1-0.9-0.1zm72.7-0.3c-0.4 0.1-1.5 0.1-2.1 0.1-0.1-0.2 1.7-0.1 2.1-0.1zm-119.8 0.2c-0.7 0.2 0.8 0.3 0.7 0.1-0.1 0-0.7-0.1-0.7-0.1zm72.5 0c-0.5 0.2 1.1 0.3 0.7 0.1 0 0-0.7-0.1-0.7-0.1zm7.3 0.1c-0.4-0.1-2.1 0-1.5 0.1 0.1 0 1.4 0 1.5-0.1zm-207.6-2.3c-0.2-0.2 1-0.1 1.2 0 0.1 0-0.9 0.3-1.2 0zm169.4 2.4c-0.4 0-1.4-0.1-1.6 0.1 0.5-0.1 1.8 0.1 1.6-0.1zm-38.3-0.1c-0.7-0.3-1.7-0.3-1.5 0 1.2 0-0.1-0.2 1.5 0zm46.4-0.2c-0.3 0-0.6 0.3-0.5 0.3 0.3 0.1 0.8-0.2 0.5-0.3zm-24.8 0.2c0-0.1-1.1 0-0.9 0 0 0.1 0.9 0.1 0.9 0zm81-0.3c-0.4-0.1 1-0.2 1.5-0.1 0.2 0.2-1.4 0.1-1.5 0.1zm-47 0.1c0-0.1-1.6 0-1 0.1 0.2 0.1 1 0 1-0.1zm15.8-0.2c-1.1 0.2 3.6 0.3 2.3 0.1 0-0.1-2.2-0.2-2.3-0.1zm7.6 0.1c-0.2-0.1-0.1-0.7 0.7-0.4 0.1 0-0.4 0.2-0.3 0.2 0.1 0 1.8 0.1 1.9 0.1 0.1 0 0-0.2 0.1-0.3 0.1 0 1.1 0.2 1.7 0.2 1 0 1.1-0.2 1.2-0.2 0.3 0 0.7 0.1 1.2 0.1 1.2 0 2.6 0 4 0 1.7 0 3.4 0 4.5 0.2-1.5-0.1-3 0-4.5 0q-0.4 0-0.8 0.1c0.5-0.4-2.7 0.2-0.8-0.2-0.9 0.1-8.2 0.2-8.9 0.2q0 0 0 0zm-88.6-0.2c0.5-0.2-1.9-0.2-2.1 0.1 0.3 0 2.1-0.1 2.1-0.1zm11.1-0.4c0.2-0.1 0.5-0.5 1.6-0.3q0 0 0 0c0.4 0.1 0 0.2 0 0.2 0.1 0 1.1 0.3 0.2 0.3-1.3 0-0.1-0.3-0.8-0.3-0.1 0-1.5 0.2-1.4 0.2 0 0 0.4 0 0.5 0 0.3 0.1 0.1 0.2 0.2 0.2 0.1 0 2.3-0.2 2.6 0 0.1 0.1-3.5 0.2-3.6 0.2-0.1-0.1-0.1-0.4-0.1-0.4-0.1 0-1.5 0.1-1.7 0q-0.1 0-0.1 0c0.2 0.1-1.1 0.1-1.1 0 0.1-0.1 0.9 0 1 0q0 0 0 0c-0.2-0.1 2.8-0.1 2.2-0.3 0.9-0.1-0.1 0.3 0.5 0.2zm4.2-0.2q-0.1 0-0.3 0.1c1.6-0.1 3.3 0.1 5.1 0.1 0.4 0-0.1-0.2 0.5-0.2 0.5 0.1 1 0.3 0.7 0.3 0 0-1-0.1-1.5-0.1-1.4 0-1 0.2-1.1 0.2-0.1 0.1-1-0.1-1.5-0.1-1.2 0-1.7 0.1-3.4 0 1-0.1 0.4-0.4 1.5-0.3zm56.9 0.4c0-0.1 1 0 1.4-0.1-0.1 0.2-1.1 0.1-1.4 0.1zm-148.7-1.3c-0.3 0.2 1.9 0.3 1.3 0.1-0.1 0-1.1-0.1-1.3-0.1zm10.3 0.3c0.3 0-1-0.2-1 0 0 0 0.9 0 1 0zm101.2 0.8c0.1 0 0.9 0.1 1 0.1 0.5 0.2-2.3 0.1-1-0.1zm-88.7-0.8c-1.1 0.1 2.2 0.2 1.2 0.1-0.1-0.1-1.1-0.1-1.2-0.1zm4.5 0c-0.3 0.1-1.4 0-1.4 0 0 0.1 1.3 0.2 1.4 0zm105.4 0.7c-0.1-0.2 1.4 0 1.9 0 0.2 0.2-1.3 0-1.9 0zm-9.5-0.1c6.4-0.2 5 0.3-0.3 0.1 0-0.1-0.1-0.1 0.3-0.1zm8.2 0c-0.3 0.2-1 0.1-1.5 0.1 0.1-0.1 1.1-0.1 1.5-0.1zm-134.2-1.3c0.4-0.1 2.2 0.1 1.9 0.2-0.1 0-2-0.1-1.9-0.2zm114.9 1.3c-0.2-0.2 1.7-0.1 1.9-0.1 0.5 0.2-1.8 0.1-1.9 0.1zm29.6-0.1c0.4-0.1 1.3-0.1 1.9-0.1-0.2 0.2-1.3 0.1-1.9 0.1zm-4.4-0.1c0 0 0.9 0 0.9 0 0.7 0.2-1.7 0.2-0.9 0zm-185.1-2.6c0 0 0.7 0.1 0.7 0.1 0.5 0.2-1.4 0.1-0.7-0.1z"/>
</svg>